<svg width="270" height="270" viewBox="0 0 270 270" fill="none" xmlns="http://www.w3.org/2000/svg">
<path d="M135 0C209.531 0 270 60.4688 270 135C270 209.531 209.531 270 135 270C60.4688 270 0 209.531 0 135C0 60.4688 60.3984 0 135 0ZM135 22.5C76.6406 22.5 28.6875 66.9375 23.0625 123.75H91.4062C96.3984 104.344 114.047 90 135 90C155.953 90 173.602 104.344 178.594 123.75H246.938C241.313 66.9375 193.359 22.5 135 22.5ZM112.5 135C112.5 147.445 122.555 157.5 135 157.5C147.445 157.5 157.5 147.445 157.5 135C157.5 122.555 147.445 112.5 135 112.5C122.555 112.5 112.5 122.555 112.5 135ZM135 247.5C193.359 247.5 241.313 203.063 246.938 146.25H178.594C173.602 165.656 155.953 180 135 180C114.047 180 96.3984 165.656 91.4062 146.25H23.0625C28.6875 203.133 76.6406 247.5 135 247.5Z" fill="white"/>
</svg>
